<svg width="20" height="20" viewBox="0 0 20 20" fill="none" xmlns="http://www.w3.org/2000/svg">
<g clip-path="url(#clip0)">
<path d="M10 3.63639C11.0042 3.63639 11.8182 2.82236 11.8182 1.8182C11.8182 0.814035 11.0042 0 10 0C8.99586 0 8.18182 0.814035 8.18182 1.8182C8.18182 2.82236 8.99586 3.63639 10 3.63639Z" fill="white"/>
<path d="M4.54548 3.63639C5.54964 3.63639 6.36367 2.82236 6.36367 1.8182C6.36367 0.814035 5.54964 0 4.54548 0C3.54131 0 2.72728 0.814035 2.72728 1.8182C2.72728 2.82236 3.54131 3.63639 4.54548 3.63639Z" fill="white"/>
<path d="M15.4546 3.63639C16.4587 3.63639 17.2728 2.82236 17.2728 1.8182C17.2728 0.814035 16.4587 0 15.4546 0C14.4504 0 13.6364 0.814035 13.6364 1.8182C13.6364 2.82236 14.4504 3.63639 15.4546 3.63639Z" fill="white"/>
<path d="M10 9.09098C11.0042 9.09098 11.8182 8.27695 11.8182 7.27279C11.8182 6.26862 11.0042 5.45459 10 5.45459C8.99586 5.45459 8.18182 6.26862 8.18182 7.27279C8.18182 8.27695 8.99586 9.09098 10 9.09098Z" fill="white"/>
<path d="M4.54548 9.09098C5.54964 9.09098 6.36367 8.27695 6.36367 7.27279C6.36367 6.26862 5.54964 5.45459 4.54548 5.45459C3.54131 5.45459 2.72728 6.26862 2.72728 7.27279C2.72728 8.27695 3.54131 9.09098 4.54548 9.09098Z" fill="white"/>
<path d="M15.4546 9.09098C16.4587 9.09098 17.2728 8.27695 17.2728 7.27279C17.2728 6.26862 16.4587 5.45459 15.4546 5.45459C14.4504 5.45459 13.6364 6.26862 13.6364 7.27279C13.6364 8.27695 14.4504 9.09098 15.4546 9.09098Z" fill="white"/>
<path d="M10 14.5455C11.0042 14.5455 11.8182 13.7314 11.8182 12.7273C11.8182 11.7231 11.0042 10.9091 10 10.9091C8.99586 10.9091 8.18182 11.7231 8.18182 12.7273C8.18182 13.7314 8.99586 14.5455 10 14.5455Z" fill="white"/>
<path d="M10 20C11.0042 20 11.8182 19.186 11.8182 18.1818C11.8182 17.1777 11.0042 16.3636 10 16.3636C8.99586 16.3636 8.18182 17.1777 8.18182 18.1818C8.18182 19.186 8.99586 20 10 20Z" fill="white"/>
<path d="M4.54548 14.5455C5.54964 14.5455 6.36367 13.7314 6.36367 12.7273C6.36367 11.7231 5.54964 10.9091 4.54548 10.9091C3.54131 10.9091 2.72728 11.7231 2.72728 12.7273C2.72728 13.7314 3.54131 14.5455 4.54548 14.5455Z" fill="white"/>
<path d="M15.4546 14.5455C16.4587 14.5455 17.2728 13.7314 17.2728 12.7273C17.2728 11.7231 16.4587 10.9091 15.4546 10.9091C14.4504 10.9091 13.6364 11.7231 13.6364 12.7273C13.6364 13.7314 14.4504 14.5455 15.4546 14.5455Z" fill="white"/>
</g>
<defs>
<clipPath id="clip0">
</clipPath>
</defs>
</svg>
